<svg width="402" height="523" viewBox="0 0 402 523" fill="none" xmlns="http://www.w3.org/2000/svg">
    <path d="M224.543 215.793V0.847473H47.0859V215.793V430.738H224.543H402V215.793H224.543Z" fill="#FF9D00"/>
    <path d="M333.112 522.957H-29.05V84.2885H155.655V299.234H333.112V522.957ZM-21.8024 514.179H325.864V308.012H148.407V93.0672H-21.8024V514.179Z" fill="#0B315E"/>
    <path d="M261.687 3.17377H250.888V189.72H261.687V3.17377Z" fill="#3252DF"/>
    <path d="M289.191 3.12994H278.392V189.676H289.191V3.12994Z" fill="#3252DF"/>
    <path d="M316.66 3.17377H305.861V189.72H316.66V3.17377Z" fill="#3252DF"/>
    <path d="M344.128 3.17377H333.329V189.72H344.128V3.17377Z" fill="#3252DF"/>
    <path d="M371.596 3.12994H360.798V189.676H371.596V3.12994Z" fill="#3252DF"/>
    <path d="M398.739 3.17377H388.266V189.72H398.739V3.17377Z" fill="#3252DF"/>
</svg>
