<svg width="390" height="390" viewBox="0 0 390 390" fill="none" xmlns="http://www.w3.org/2000/svg">
<path d="M25.5508 98.2085L98.2519 25.5072C85.3448 32.8827 73.3597 41.7069 62.516 51.7165L51.7601 62.4725C41.7505 73.3601 32.9262 85.3014 25.5508 98.2085Z" fill="#FF9D00"/>
<path d="M3.86334 155.982L156.027 3.81931C151.812 4.65344 147.685 5.66311 143.559 6.76065L6.80474 143.514C5.6633 147.641 4.69747 151.812 3.86334 155.982Z" fill="#FF9D00"/>
<path d="M0 194.66C0 195.055 0 195.494 0 195.889L195.889 0C195.494 0 195.055 0 194.66 0C191.85 0 188.997 0.0878409 186.231 0.175644L0.175577 186.231C0.0877739 189.041 0 191.85 0 194.66Z" fill="#FF9D00"/>
<path d="M3.02916 228.991L228.991 3.02933C226.269 2.54642 223.503 2.1075 220.781 1.75628L1.75604 220.782C2.10725 223.504 2.54624 226.27 3.02916 228.991Z" fill="#FF9D00"/>
<path d="M10.4047 257.659L257.659 10.4048C255.288 9.57064 252.874 8.82422 250.459 8.1218L8.1218 250.459C8.82422 252.874 9.61447 255.288 10.4047 257.659Z" fill="#FF9D00"/>
<path d="M21.1606 282.99L283.034 21.1165C280.927 20.019 278.776 19.0093 276.624 17.9996L18.0435 276.58C19.0532 278.776 20.063 280.883 21.1606 282.99Z" fill="#FF9D00"/>
<path d="M34.6823 305.556L305.6 34.6384C303.712 33.3213 301.824 32.0482 299.892 30.819L30.8629 299.848C32.0922 301.824 33.3653 303.712 34.6823 305.556Z" fill="#FF9D00"/>
<path d="M50.6625 325.663L325.663 50.6626C323.994 49.1699 322.326 47.6772 320.614 46.2284L46.2284 320.614C47.6772 322.326 49.1259 323.994 50.6625 325.663Z" fill="#FF9D00"/>
<path d="M69.0134 343.356L343.355 69.0139C341.906 67.3017 340.414 65.5895 338.921 63.9213L63.9209 338.921C65.633 340.458 67.3012 341.907 69.0134 343.356Z" fill="#FF9D00"/>
<path d="M89.779 358.721L358.721 89.7791C357.491 87.8474 356.218 85.9597 354.901 84.0719L84.0717 354.901C85.9595 356.175 87.8473 357.448 89.779 358.721Z" fill="#FF9D00"/>
<path d="M113.091 371.452L371.452 113.091C370.442 110.94 369.433 108.789 368.335 106.681L106.637 368.379C108.788 369.433 110.94 370.486 113.091 371.452Z" fill="#FF9D00"/>
<path d="M139.3 381.33L381.374 139.256C380.672 136.842 379.881 134.427 379.091 132.057L132.1 379.048C134.427 379.882 136.842 380.628 139.3 381.33Z" fill="#FF9D00"/>
<path d="M169.022 387.652L387.652 169.021C387.301 166.256 386.862 163.49 386.379 160.768L160.768 386.379C163.534 386.906 166.256 387.301 169.022 387.652Z" fill="#FF9D00"/>
<path d="M194.66 389.364C197.689 389.364 200.675 389.276 203.616 389.144L389.101 203.66C389.232 200.674 389.32 197.689 389.32 194.704C389.32 194.441 389.32 194.221 389.32 193.957L193.914 389.364C194.177 389.364 194.441 389.364 194.66 389.364Z" fill="#FF9D00"/>
<path d="M246.508 382.384L382.384 246.508C383.525 242.382 384.535 238.211 385.413 233.996L233.996 385.413C238.21 384.535 242.381 383.482 246.508 382.384Z" fill="#FF9D00"/>
<path d="M363.111 292.342L292.297 363.155C321.624 346.078 346.077 321.624 363.111 292.342Z" fill="#FF9D00"/>
</svg>
